<?xml version="1.0" encoding="utf-8"?>
<!-- Generator: Adobe Illustrator 22.1.0, SVG Export Plug-In . SVG Version: 6.00 Build 0)  -->
<svg version="1.1" id="Layer_1" xmlns="http://www.w3.org/2000/svg" xmlns:xlink="http://www.w3.org/1999/xlink" x="0px" y="0px"
	 width="1071.1px" height="1149.9px" viewBox="0 0 1071.1 1149.9" style="enable-background:new 0 0 1071.1 1149.9;"
	 xml:space="preserve">
<style type="text/css">
	.st0{fill:#94090D;stroke:#000000;stroke-miterlimit:10;}
	.st1{fill:none;}
	.st2{fill:#FFFFFF;}
</style>
<ellipse class="st0" cx="533.6" cy="573.9" rx="528.6" ry="561.9"/>
<g>
	<path class="st1" d="M133.6,169.9h800v800h-800L133.6,169.9L133.6,169.9z"/>
	<path class="st2" d="M733.6,269.9v50h-31.7l40.4,150.8c3.4-0.3,6.8-0.5,10.3-0.6l6-0.1c96.6,0,175,78.4,175,175s-78.4,175-175,175
		s-175-78.4-175-175c0-73.7,45.6-136.8,110-162.6l-6.5-24.4l-250.9,67.2c28.1,29.9,45.8,69.8,47.2,113.7l0.1,6
		c0,96.6-78.4,175-175,175s-174.9-78.4-174.9-175s78.4-175,175-175c20.9,0,40.9,3.7,59.5,10.4l-29.6-110.4h-54.9v-50h150v50h-43.3
		l29,108.1l254.9-68.3l-24-89.8h-91.6v-50L733.6,269.9L733.6,269.9z"/>
</g>
</svg>
