<?xml version="1.0" encoding="utf-8"?>
<!-- Generator: Adobe Illustrator 22.1.0, SVG Export Plug-In . SVG Version: 6.00 Build 0)  -->
<svg version="1.1" id="Layer_1" xmlns="http://www.w3.org/2000/svg" xmlns:xlink="http://www.w3.org/1999/xlink" x="0px" y="0px"
	 viewBox="0 0 800 800" style="enable-background:new 0 0 800 800;" xml:space="preserve">
<style type="text/css">
	.st0{fill:none;}
	.st1{fill:#FFFFFF;}
</style>
<g>
	<path class="st0" d="M0,0h800v800H0V0z"/>
	<path class="st1" d="M600,100v50h-31.7l40.4,150.8c3.4-0.3,6.8-0.5,10.3-0.6l6-0.1c96.6,0,175,78.4,175,175s-78.4,175-175,175
		s-175-78.4-175-175c0-73.7,45.6-136.8,110-162.6l-6.5-24.4l-250.9,67.2c28.1,29.9,45.8,69.8,47.2,113.7l0.1,6
		c0,96.6-78.4,175-175,175S0,571.6,0,475s78.4-175,175-175c20.9,0,40.9,3.7,59.5,10.4L204.9,200H150v-50h150v50h-43.3l29,108.1
		l254.9-68.3l-24-89.8H425v-50H600z"/>
</g>
</svg>
